<?xml version="1.0" encoding="utf-8" ?>
<svg xmlns="http://www.w3.org/2000/svg" xmlns:xlink="http://www.w3.org/1999/xlink" width="1024" height="1024">
	<path fill="#141313" d="M175.564 529.272C174.169 528.151 171.605 527.531 169.946 526.866C156.469 521.462 147.829 511.433 142.412 498.175C138.166 487.783 139.178 473.772 143.4 463.542Q143.903 462.352 144.465 461.187Q145.026 460.023 145.644 458.887Q146.261 457.752 146.934 456.648Q147.607 455.544 148.332 454.475Q149.058 453.405 149.836 452.373Q150.613 451.34 151.441 450.347Q152.268 449.354 153.143 448.402Q154.018 447.451 154.938 446.543Q155.859 445.636 156.822 444.775Q157.786 443.914 158.791 443.101Q159.796 442.288 160.84 441.525Q161.884 440.763 162.963 440.052Q164.043 439.342 165.156 438.685Q166.27 438.028 167.414 437.427Q168.558 436.825 169.73 436.281Q170.902 435.736 172.1 435.25C185.444 429.826 199.237 429.768 212.499 435.497C225.062 440.925 235.529 450.538 240.572 463.399C244.759 474.08 245.675 488.398 240.885 498.993C235.771 510.303 223.625 522.517 211.989 526.928C212.012 527.651 211.823 528.354 212.36 528.91C214.746 531.378 220.522 531.731 223.666 533.114Q228.441 535.215 233.005 537.741Q237.569 540.267 241.885 543.197C265.441 559.091 289.026 579.742 310.728 598.3L324.505 552.814C326.761 545.337 328.528 536.81 331.962 529.815C333.366 526.956 334.559 525.046 337.438 523.525C339.986 522.178 342.471 521.572 345.349 521.651C356.617 521.962 370.492 524.682 381.986 525.971Q427.492 530.883 472.885 536.755C479.01 537.529 497.966 538.664 502.667 540.356C504.022 540.844 505.432 541.721 506.103 543.04C507.02 544.841 506.511 546.553 505.922 548.322C501.997 560.092 495.982 571.285 491.469 582.87C483.968 602.126 476.524 621.343 468.722 640.483C465.886 647.44 463.386 654.8 460.212 661.593C459.23 663.695 457.413 665.841 455.173 666.627C449.128 668.748 395.047 670.273 384.985 669.7C390.691 673.08 395.185 677.054 396.906 683.744C398.778 691.017 396.24 698.021 393.545 704.688C400.961 706.128 408.436 707.49 415.751 709.39C419.718 710.42 423.46 712.065 427.394 713.144C431.789 714.349 436.426 714.861 440.932 715.509C445.975 707.31 455.228 695.334 465.172 693.168C468.089 692.532 471.198 693.099 473.964 694.136C477.175 695.597 479.447 697.976 480.87 701.228C482.021 703.856 482.193 706.377 481.722 709.167C480.187 718.256 475.74 727.577 472.592 736.266C467.557 750.161 462.851 764.233 457.422 777.976C474.879 778.463 492.402 778.094 509.867 778.067Q543.9 778.167 577.932 777.845L563.497 739.079C560.035 729.905 555.976 720.625 553.462 711.147C552.954 709.231 552.763 707.369 552.892 705.388C553.139 701.565 554.54 697.705 557.601 695.241C560.202 693.146 563.697 692.387 566.967 692.774C580.545 696.542 586.114 717.042 597.639 719.046C599.66 719.398 601.865 718.849 603.827 718.39C605.809 717.959 608.736 717.626 610.44 716.529C611.908 715.584 611.831 714.559 612.158 713.007C614.983 710.084 627.163 708.272 631.545 707.273C628.256 700.633 626.134 692.644 628.103 685.301C630.158 677.638 635.597 673.272 642.12 669.492L642.175 669.289L641.54 669.077L641.707 668.69C641.475 668.812 641.259 668.973 641.01 669.056C639.057 669.711 574.43 667.907 572.198 667.015C568.86 665.679 566.388 661.324 564.974 658.24C562.365 652.548 560.37 646.477 557.989 640.672L540.746 598.639L527.692 566.863C525.445 561.397 522.786 555.836 521.003 550.207C520.419 548.364 520.038 546.993 520.811 545.132C521.368 543.789 522.239 542.717 523.621 542.165C529.601 539.776 540.155 540.072 546.658 539.533L574.308 537.07L647.399 530.841C657.063 530.073 666.796 528.914 676.471 528.461C679.032 528.341 682.341 528.174 684.711 529.2C686.452 531.076 687.544 533.12 688.532 535.462C691.506 542.509 693.334 550.453 695.575 557.775Q701.302 576.449 707.355 595.019C727.381 587.412 747.018 573.687 760.555 556.906Q760.108 554.592 759.728 552.266C755.738 527.398 765.719 502.741 780.119 482.864C778.646 480.14 777.686 477.297 777.636 474.174C777.557 469.177 779.829 464.667 783.283 461.16C790.429 453.902 801.716 449.506 811.825 449.362C822.409 449.212 832.32 453.841 838.682 462.335C841.441 466.017 843.875 470.315 847.252 473.467C849.789 475.835 852.821 477.492 856.132 478.507C867.268 481.919 874.449 474.793 884.865 474.761C888.57 474.75 892.026 475.786 895.305 477.459C906.236 483.036 921.622 499.046 930.349 508.086C938.876 516.92 946.556 527.948 946.116 540.788C945.413 561.296 922.548 571.682 906.492 579.35C902.845 581.092 897.507 582.872 894.615 585.551L894.627 586.929C904.238 605.8 911.466 636.341 913.318 657.46C926.156 670.937 931.414 686.073 930.897 704.749Q930.845 706.608 930.702 708.462Q930.559 710.316 930.325 712.161Q930.091 714.006 929.767 715.837Q929.442 717.668 929.029 719.481Q928.615 721.295 928.113 723.085Q927.611 724.876 927.021 726.64Q926.432 728.403 925.757 730.136Q925.082 731.869 924.322 733.566Q923.563 735.264 922.721 736.922Q921.879 738.58 920.957 740.195Q920.035 741.81 919.035 743.378Q918.034 744.946 916.958 746.462Q915.882 747.979 914.733 749.441Q913.584 750.903 912.365 752.307Q911.145 753.711 909.858 755.054Q908.571 756.396 907.22 757.674C899.578 764.875 890.456 769.349 880.77 773.164L881.509 773.068C891.519 771.822 902.258 772.3 912.388 772.107C921.512 771.933 930.913 771.223 940.006 771.423C941.204 771.45 942.356 771.372 943.395 772.059L943.607 772.908C942.157 774.153 940.321 774.29 938.484 774.46C923.083 775.877 907.287 775.38 891.828 775.646L822.692 777.414Q713.881 780.877 605.015 781.027L592.388 781.029L451.028 781.099C409.063 780.842 367.146 780.986 325.182 780.131C295.543 779.756 265.944 780.144 236.296 779.419C226.218 779.089 215.588 779.403 205.606 778.14C187.175 777.858 168.707 776.207 150.266 775.676C129.694 775.083 109.012 775.575 88.4776 774.655C86.9731 774.587 85.7969 774.427 84.7001 773.376L85.1714 772.603C86.4985 772 87.5922 771.758 89.0543 771.693C93.5749 771.492 98.2 771.974 102.734 772.003L136.562 772.03C126.778 768.145 118.626 763.821 110.938 756.493C95.8004 742.065 88.6331 723.742 88.1355 702.955C87.7383 686.366 91.8318 671.47 103.441 659.305C105.931 624.723 113.685 574.868 138.502 549.134C146.227 541.124 163.733 529.692 175.209 529.496L175.564 529.272ZM789.011 676.02C789.76 675.576 790.475 675.157 791.151 674.603C791.788 674.081 791.612 673.834 791.686 673.057C797.482 671.318 803.381 669.844 809.108 667.892C835.573 658.87 859.802 638.271 871.847 612.917C873.402 609.643 874.795 606.217 875.84 602.745C876.748 599.727 877.25 596.394 878.646 593.579C879.786 593.018 879.74 592.984 880.958 593.319L881.343 594.49C877.344 613.206 868.219 629.006 854.784 642.511C873.68 642.183 893.688 644.786 910.05 654.88C907.495 631.485 899.89 609.163 891.66 587.268C893.017 587.503 893.312 587.391 894.627 586.929L894.615 585.551C897.507 582.872 902.845 581.092 906.492 579.35C922.548 571.682 945.413 561.296 946.116 540.788C946.556 527.948 938.876 516.92 930.349 508.086C921.622 499.046 906.236 483.036 895.305 477.459C892.026 475.786 888.57 474.75 884.865 474.761C874.449 474.793 867.268 481.919 856.132 478.507C852.821 477.492 849.789 475.835 847.252 473.467C843.875 470.315 841.441 466.017 838.682 462.335C832.32 453.841 822.409 449.212 811.825 449.362C801.716 449.506 790.429 453.902 783.283 461.16C779.829 464.667 777.557 469.177 777.636 474.174C777.686 477.297 778.646 480.14 780.119 482.864C765.719 502.741 755.738 527.398 759.728 552.266Q760.108 554.592 760.555 556.906C747.018 573.687 727.381 587.412 707.355 595.019Q701.303 576.449 695.575 557.775C693.334 550.453 691.506 542.509 688.532 535.462C687.544 533.12 686.452 531.076 684.711 529.2C682.341 528.174 679.032 528.341 676.471 528.461C666.796 528.914 657.063 530.073 647.399 530.841L574.308 537.07L546.658 539.533C540.155 540.072 529.601 539.776 523.621 542.165C522.239 542.717 521.368 543.789 520.811 545.132C520.038 546.993 520.419 548.364 521.003 550.207C522.786 555.836 525.445 561.397 527.692 566.863L540.746 598.639L557.989 640.672C560.37 646.477 562.365 652.548 564.974 658.24C566.388 661.324 568.86 665.679 572.198 667.015C574.43 667.907 639.057 669.711 641.01 669.056C641.259 668.973 641.475 668.812 641.707 668.69L641.54 669.077L642.175 669.289L642.12 669.492Q643.789 670.451 645.503 671.327C639.16 674.456 633.661 678.347 631.384 685.429C628.969 692.939 631.779 699.964 634.515 706.898C667.039 697.588 700.236 690.786 732.951 682.243C733.38 683.205 733.768 684.223 734.267 685.149L650.782 705.888C638.986 708.77 627.126 711.355 615.398 714.509C618.12 723.15 620.041 732.027 622.511 740.741C626.026 753.145 629.84 765.35 632.952 777.873C641.474 777.951 651.422 778.444 659.768 776.951C670.27 775.072 680.876 771.691 691.266 769.16L778.279 747.501L806.733 740.194C811.931 738.83 817.132 737.146 822.403 736.108C824.074 735.78 825.577 735.553 827.214 736.166L827.578 737.109C825.301 739.748 793.093 747.176 787.184 748.815C807.487 763.372 833.395 772.787 858.569 772.724C877.005 772.678 894.524 765.94 907.534 752.689C920.524 739.459 928.179 719.978 927.876 701.446C927.637 686.866 922.914 671.282 912.201 660.962C898.031 647.31 870.488 645.179 851.847 645.522C845.765 650.617 839.675 655.731 833.004 660.049C825.101 665.164 798.548 678.068 789.011 676.02ZM106.378 657.089C121.132 647.703 139.595 646.318 155.667 640.014C146.743 630.164 139.731 619.375 135.141 606.878C134.193 604.299 132.884 601.316 132.932 598.543C132.949 597.597 133.158 597.452 133.619 596.682L134.499 596.586C138.331 603.053 139.546 611.421 143.45 618.265C159.05 645.617 185.971 664.444 216.149 672.258C220.638 673.421 230.437 676.562 234.614 674.669C239.485 672.46 242.661 660.345 243.819 655.537C245.123 650.121 245.335 644.816 245.394 639.276C224.299 633.346 201.414 620.008 190.266 600.464C189.353 598.865 188.313 597.047 188.406 595.159L189.243 594.598C190.399 595.019 200.699 609.734 202.99 612.058C215.059 624.3 234.751 633.918 251.394 637.704C253.843 638.262 256.65 639.138 259.172 639.106C265.161 639.029 271.24 635.377 277.241 634.413C277.853 634.315 278.461 634.206 279.075 634.114C279.246 601.685 272.208 577.437 248.783 553.794C242.306 547.256 222.968 533.628 213.575 533.212C213.444 533.206 213.312 533.219 213.18 533.222C212.992 534.247 213.066 535.176 213.121 536.211C211.504 538.277 207.472 538.68 204.897 539.007C199.303 539.718 189.812 539.927 185.185 536.353C183.766 535.256 183.479 533.766 183.072 532.125C181.761 531.381 180.75 531.501 179.307 531.574C159.766 535.229 143.699 545.282 132.4 561.742C116.414 585.033 108.672 628.839 106.378 657.089ZM186.05 531.021C185.747 531.96 185.722 531.683 185.789 532.494C185.854 533.282 186.478 533.649 187.109 534.075C191.772 537.227 204.748 535.883 210.091 535.03C208.875 532.343 207.428 529.748 206.187 527.064C203.033 522.615 202.019 518.315 201.319 513.035C207.395 511.982 215.716 511.289 219.456 505.717C221.317 502.944 221.428 499.521 220.611 496.37C219.509 492.123 216.841 488.352 213.005 486.166C209.128 483.957 203.554 483.939 199.367 485.33C197.887 485.821 196.796 486.787 196.154 488.206C194.73 491.355 197.694 495.202 196.489 497.782C194.752 498.377 193.764 497.792 192.144 497.088C190.319 496.297 188.388 495.931 186.523 496.867C185.316 497.473 184.481 498.543 184.127 499.84C183.627 501.666 184.237 503.489 185.343 504.947C187.691 508.043 191.064 508.306 194.628 508.724C193.16 514.208 190.027 527.168 186.05 531.021ZM213.691 775.538C220.62 775.756 227.774 775.609 234.663 776.264L326.771 777.546C325.824 776.466 323.702 776.132 322.324 775.733Q295.244 769.163 268.286 762.111C251.133 768.124 220.461 770.838 201.928 772.766C196.258 773.355 190.212 773.172 184.647 774.332C194.241 775.205 204.057 775.209 213.691 775.538ZM323.758 772.853C331.087 774.908 339.324 776.784 346.901 777.551C353.401 778.208 360.169 777.935 366.701 777.952L399.674 778.009C400.443 774.427 401.664 770.929 402.77 767.438C407.615 749.169 414.426 731.361 419.002 713.03L283.92 685.007C271.487 682.375 259.139 678.925 246.713 676.428C242.785 675.639 238.84 677.612 234.93 677.88C224.68 678.583 213.628 675.185 204.003 671.937C186.704 666.098 171.141 655.707 158.194 642.926Q146.707 646.343 135.148 649.505C120.854 653.481 106.068 656.492 98.3622 670.599C89.7293 686.404 89.1242 706.816 94.2391 723.804Q94.7151 725.418 95.2705 727.006Q95.826 728.595 96.4594 730.154Q97.0929 731.713 97.8028 733.238Q98.5128 734.764 99.2974 736.253Q100.082 737.741 100.94 739.189Q101.797 740.637 102.725 742.04Q103.653 743.444 104.65 744.8Q105.647 746.156 106.709 747.46Q107.772 748.765 108.898 750.016Q110.024 751.266 111.21 752.46Q112.397 753.653 113.641 754.786Q114.885 755.919 116.184 756.988Q117.483 758.058 118.833 759.063Q120.183 760.067 121.581 761.003Q122.98 761.939 124.423 762.804Q125.866 763.67 127.35 764.463C133.745 767.895 140.892 770.616 148.123 771.543C156.444 772.61 165.081 771.815 173.427 771.418Q195.918 770.263 218.282 767.618Q240.646 764.973 262.786 760.85C254.069 758.64 192.817 745.378 190.146 743.151L189.895 741.982C190.739 741.225 190.835 741.236 191.937 741.26C195.262 741.332 199.053 742.77 202.307 743.52Q214.3 746.211 226.246 749.108L323.758 772.853ZM429.948 736.29C425.487 735.322 420.716 734.66 416.364 733.372C413.23 745.193 409.466 756.79 405.836 768.464C410.343 768.474 414.782 769.882 419.16 769.878C420.567 757.788 425.859 747.556 429.948 736.29ZM609.416 734.801C608.284 736.091 608.072 736.711 608.241 738.434C608.756 743.677 615.016 763.542 617.459 768.273C620.512 767.304 623.625 766.553 626.728 765.767C622.925 754.693 620.002 743.262 616.891 731.977L609.416 734.801ZM246.625 673.924L247.784 673.741C253.413 665.553 254.681 650.284 253.581 640.567L248.638 639.754C247.714 652.982 245.962 661.922 239.962 673.935L246.625 673.924ZM417.814 727.451C421.479 728.097 429.622 730.366 432.927 729.597L433.562 728.763C435.302 725.334 437.082 721.982 439.075 718.693C433.377 717.797 426.966 717.286 421.557 715.285C420.194 719.319 418.92 723.339 417.814 727.451ZM341.328 525.12C337.02 527.106 335.559 528.66 333.931 533.089C330.473 542.495 327.96 552.507 325.038 562.109L304.348 630.673C301.023 641.419 298.095 652.597 293.725 662.96L413.468 663.043C423.215 663.075 447.468 665.143 455.181 663.152C456.499 661.734 457.346 660.351 458.146 658.591C461.833 650.478 464.792 641.889 468.115 633.611Q479.279 606.522 489.71 579.143Q494.056 567.929 498.737 556.851C499.849 554.232 501.282 551.712 502.307 549.072C502.78 547.85 503.341 546.456 503.352 545.141C503.357 544.571 503.338 544.588 502.848 544.208C501.565 543.211 499.929 542.923 498.36 542.685C484.105 540.528 469.512 539.249 455.176 537.579Q415.678 532.813 376.123 528.551C367.445 527.614 349.176 523.949 341.328 525.12ZM609.479 731.102C611.652 730.147 614.073 729.501 616.327 728.736L613.633 719.452Q609.982 720.029 606.364 720.782L605.939 721.29C606.991 723.985 608.004 726.744 608.805 729.525C609.115 730.601 608.915 730.116 609.479 731.102ZM277.648 637.043C270.814 639.115 264.062 641.852 256.991 642.937C257.078 650.343 256.86 657.273 255.668 664.615C260.168 664.492 264.635 664.343 269.123 663.946C275.903 663.442 282.68 661.954 287.323 656.499C289.574 653.856 290.409 650.575 289.937 647.156C289.532 644.219 288.112 641.416 285.653 639.687C283.277 638.016 280.534 637.127 277.648 637.043ZM405.01 770.909L402.717 777.939Q416.868 778.063 431.019 778.037L431.576 777.671Q427.289 775.865 422.83 774.54Q418.371 773.214 413.793 772.386C410.982 771.879 407.704 771.772 405.01 770.909ZM291.896 670.232C283.571 670.626 257.872 671.382 251.719 673.416L251.353 674.086C252.668 675.083 254.531 675.237 256.121 675.545C261.7 676.806 267.441 677.824 272.909 679.5C277.805 676.922 289.542 673.146 293.097 670.355C292.129 670.17 292.532 670.158 291.896 670.232ZM627.554 768.988C623.355 769.64 619.441 770.571 615.56 772.327C612.449 774.55 608.701 776.007 605.135 777.348L605.145 777.768L605.211 777.812C613.323 778.615 622.276 778.143 630.414 777.623C629.334 774.811 628.494 771.853 627.554 768.988ZM793.366 770.695C807.005 772.125 820.683 772.454 834.38 772.925C823.635 770.289 813.175 767.457 803.206 762.512C799.731 760.788 796.25 758.918 792.987 756.817C790.52 755.228 785.822 750.885 783.437 750.067C782.934 749.895 782.374 750.065 781.843 750.064C767.812 753.451 753.594 758.047 739.387 760.428C756.159 765.45 775.895 769.35 793.366 770.695ZM560.843 697.467C558.347 699.425 556.52 701.696 556.122 704.944C555.104 713.248 577.761 764.434 581.048 777.889C584.236 777.905 587.436 777.975 590.622 777.877C581.645 750.818 572.051 723.685 560.843 697.467ZM309.969 601.122C297.325 591.887 285.416 581.376 273.256 571.494C269.116 568.13 263.365 562.376 258.691 560.33C277.734 585.067 282.163 603.058 282.12 634.039C287.029 636.355 290.812 639.055 292.781 644.402C294.145 648.107 294.02 651.838 292.304 655.392C291.084 657.92 287.488 659.687 286.773 662.004C287.964 662.135 289.069 662.264 290.269 662.135C292.255 660.262 293.31 655.82 294.096 653.209C298.921 635.723 304.735 618.493 309.969 601.122ZM472.61 697.355C472.004 698.314 472.031 698.919 471.949 700.014C471.381 707.627 467.351 714.619 464.633 721.631C460.759 731.627 457.203 741.747 453.343 751.751C450.104 760.144 446.038 768.905 443.949 777.643L450.504 778.011C451.812 778.05 452.83 778.089 454.082 777.613L470.723 731.52C473.369 724.177 477.009 716.183 478.534 708.546C478.81 707.165 478.618 705.749 478.248 704.4C477.371 701.204 475.385 699.041 472.61 697.355ZM733.105 761.991C713.188 768.46 692.416 771.656 672.343 777.579L717.881 777.068C726.711 776.967 735.614 777.145 744.424 776.534C764.861 775.922 785.707 776.622 806.064 774.725C781.698 772.659 756.463 769.572 733.105 761.991ZM372.379 700.208Q381.337 702.003 390.225 704.122C392.865 696.773 396.225 689.265 392.669 681.545C390.441 676.709 385.797 673.033 380.825 671.29C373.734 668.804 320.605 670.158 307.78 670.23C297.058 670.471 287.672 676.714 277.897 680.597C290.882 684.11 304.46 686.006 317.656 688.619C335.932 692.237 354.153 696.334 372.379 700.208Z"/>
	<path fill="#141313" d="M780.119 482.864C778.646 480.14 777.686 477.297 777.636 474.174C777.557 469.177 779.829 464.667 783.283 461.16C790.429 453.902 801.716 449.506 811.825 449.362C822.409 449.212 832.32 453.841 838.682 462.335C841.441 466.017 843.875 470.315 847.252 473.467C849.789 475.835 852.821 477.492 856.132 478.507C867.268 481.919 874.449 474.793 884.865 474.761C888.57 474.75 892.026 475.786 895.305 477.459C906.236 483.036 921.622 499.046 930.349 508.086C938.876 516.92 946.556 527.948 946.116 540.788C945.413 561.296 922.548 571.682 906.492 579.35C902.845 581.092 897.507 582.872 894.615 585.551L894.627 586.929C893.312 587.391 893.017 587.503 891.66 587.268C886.025 571.532 872.148 549.317 859.592 538.732C851.551 531.954 842.881 528.746 832.987 525.725C831.142 525.161 828.446 523.952 826.529 524.381C825.059 524.71 824.815 525.591 824.056 526.756C820.377 531.906 815.461 536.336 808.987 537.406C806.335 537.844 803.818 537.681 801.362 536.578L797.427 533.594C778.243 544.202 761.416 585.028 755.522 605.554C751.679 618.936 749.897 632.368 746.904 645.889C753.829 641.684 761.508 639.426 769.502 638.388C770.16 638.303 770.713 638.125 771.323 637.872C771.567 637.349 772.056 635.846 772.424 635.507C773.584 634.437 788.622 628.146 791.907 626.224C801.491 620.615 811.42 612.328 818.057 603.402C820.58 600.009 823.031 595.029 826.068 592.286L827.032 592.018C827.481 592.405 827.978 592.591 828.007 593.238C828.23 598.152 812.819 613.766 808.916 617.327C799.14 626.247 788.109 633.149 775.568 637.395C778.912 644.585 782.427 651.7 785.653 658.943C787.007 661.983 790.038 671.049 791.686 673.057C791.612 673.834 791.788 674.081 791.151 674.603C790.475 675.157 789.76 675.576 789.011 676.02L786.401 672.942C769.961 676.402 750.141 680.326 734.267 685.149C733.768 684.223 733.38 683.205 732.951 682.243C733.655 681.729 733.409 682.081 733.597 681.129C730.393 677.713 724.565 673.15 720.402 671.162C716.778 669.431 658.68 669.637 650.978 670.155C649.036 670.285 647.339 670.695 645.503 671.327Q643.789 670.451 642.12 669.492L642.175 669.289L641.54 669.077L641.707 668.69C641.475 668.812 641.259 668.973 641.01 669.056C639.057 669.711 574.43 667.907 572.198 667.015C568.86 665.679 566.388 661.324 564.974 658.24C562.365 652.548 560.37 646.477 557.989 640.672L540.746 598.639L527.692 566.863C525.445 561.397 522.786 555.836 521.003 550.207C520.419 548.364 520.038 546.993 520.811 545.132C521.368 543.789 522.239 542.717 523.621 542.165C529.601 539.776 540.155 540.072 546.658 539.533L574.308 537.07L647.399 530.841C657.063 530.073 666.796 528.914 676.471 528.461C679.032 528.341 682.341 528.174 684.711 529.2C686.452 531.076 687.544 533.12 688.532 535.462C691.506 542.509 693.334 550.453 695.575 557.775Q701.302 576.449 707.355 595.019C727.381 587.412 747.018 573.687 760.555 556.906Q760.108 554.592 759.728 552.266C755.738 527.398 765.719 502.741 780.119 482.864ZM811.905 494.799C806.369 493.041 803.062 490.894 800.307 485.528C798.936 482.858 797.682 480.115 796.406 477.398L795.648 477.989C792.736 480.241 787.375 482.438 785.214 484.539C784.432 485.299 784.077 486.945 783.961 487.984C783.247 494.359 786.649 502.27 790.717 507.037C793.001 509.713 797.927 510.682 799.507 513.272C803.274 519.449 798 529.681 804.389 534.269C805.504 534.399 806.617 534.505 807.739 534.384C813.839 533.73 817.895 529.752 821.408 525.111C821.059 523.162 818.778 521.489 817.605 519.817C814.973 516.064 810.42 508.281 811.627 503.701C815.744 499.787 823.29 505.225 823.371 495.496C823.385 493.808 823.105 492.689 822.254 491.244C820.846 490.37 820.095 490.117 818.449 490.488C815.41 491.173 813.999 492.577 811.905 494.799ZM724.939 662.481C718.516 640.349 710.981 618.593 704.236 596.567C698.156 576.713 692.872 556.142 685.728 536.663C685.211 535.255 684.694 533.516 683.365 532.677C682.013 531.823 680.642 531.771 679.093 531.722C641.627 535.235 604.013 537.469 566.52 540.823L543.035 542.905C537.801 543.32 532.348 543.419 527.172 544.276C525.687 544.523 524.49 544.591 523.472 545.742C523.295 547.147 523.474 548.1 523.961 549.432C525.103 552.555 526.64 555.554 527.851 558.662C535.221 577.577 543.324 596.127 550.997 614.911Q557.332 630.787 563.924 646.559C566.129 651.866 568.102 657.578 570.98 662.554C572.593 663.594 573.798 663.851 575.712 663.963C582.296 664.346 589.06 663.998 595.657 663.924L632.63 663.489C663.386 663.164 694.201 663.424 724.939 662.481ZM744.848 637.04C737.635 639.634 730.264 641.699 722.875 643.726C724.303 648.383 725.585 653.149 727.212 657.736C727.982 658.866 728.341 659.266 729.703 659.593C731.918 660.124 734.493 660.095 736.778 660.217C738.938 652.973 746.345 645.121 745.078 637.235L744.848 637.04ZM718.763 630.617L721.927 640.366Q733.948 636.989 745.821 633.123C749.8 611.272 756.049 587.456 766.636 567.82C770.727 560.233 775.739 551.952 781.133 545.243C781.702 544.536 782.353 544.349 781.844 543.547C772.58 549.412 765.84 557.212 758.252 564.966Q755.609 567.695 752.824 570.278Q750.039 572.861 747.12 575.292Q744.2 577.722 741.154 579.992Q738.109 582.263 734.946 584.366Q731.783 586.47 728.512 588.401Q725.24 590.333 721.87 592.086Q718.5 593.839 715.041 595.409Q711.582 596.979 708.044 598.361C712.175 608.798 715.251 619.936 718.763 630.617ZM770.415 641.714C760.181 642.863 749.54 646.395 742.861 654.671C741.585 656.252 740.519 657.677 740.246 659.723C740.718 660.995 740.832 661.497 742.131 662.159C744.393 663.313 748.18 662.675 750.665 662.55L780.372 661.826C776.963 655.353 773.139 648.839 770.735 641.912L770.415 641.714Z"/>
	<path fill="#141313" d="M821.408 525.111C822.283 525.683 823.142 526.248 824.056 526.756C820.377 531.906 815.461 536.336 808.987 537.406C806.335 537.844 803.818 537.681 801.362 536.578Q802.898 535.452 804.389 534.269C805.504 534.399 806.617 534.505 807.739 534.384C813.839 533.73 817.895 529.752 821.408 525.111Z"/>
	<path fill="#141313" d="M631.981 574.765C635.956 576.575 657.102 599.809 662.197 605.084C652.196 614.296 641.816 623.094 631.848 632.345L630.506 632.876C627.732 632.077 624.143 627.885 621.986 625.904C628.739 618.331 636.879 611.519 644.212 604.464C637.64 597.286 629.288 590.657 623.693 582.737C626.361 579.953 629.103 577.331 631.981 574.765Z"/>
	<path fill="#141313" d="M588.729 570.795C591.601 571.922 594.534 576.51 596.41 578.917C590.698 585.78 583.724 591.959 577.169 598.021C584.64 605.446 592.326 612.644 599.666 620.203C597.287 622.747 593.564 627.34 590.443 628.735C584.582 621.973 563.008 603.575 560.607 597.8C562.771 592.523 583.479 575.521 588.729 570.795Z"/>
	<path fill="#141313" d="M175.564 529.272C174.169 528.151 171.605 527.531 169.946 526.866C156.469 521.462 147.829 511.433 142.412 498.175C138.166 487.783 139.178 473.772 143.4 463.542Q143.903 462.352 144.465 461.187Q145.026 460.023 145.644 458.887Q146.261 457.752 146.934 456.648Q147.607 455.544 148.332 454.475Q149.058 453.405 149.836 452.373Q150.613 451.34 151.441 450.347Q152.268 449.354 153.143 448.402Q154.018 447.451 154.938 446.543Q155.859 445.636 156.822 444.775Q157.786 443.914 158.791 443.101Q159.796 442.288 160.84 441.525Q161.884 440.763 162.963 440.052Q164.043 439.342 165.156 438.685Q166.27 438.028 167.414 437.427Q168.558 436.825 169.73 436.281Q170.902 435.736 172.1 435.25C185.444 429.826 199.237 429.768 212.499 435.497C225.062 440.925 235.529 450.538 240.572 463.399C244.759 474.08 245.675 488.398 240.885 498.993C235.771 510.303 223.625 522.517 211.989 526.928L211.78 526.848C210.427 527.068 209.352 527.984 208.241 528.737C207.462 527.718 207.386 527.452 206.187 527.064C203.033 522.615 202.019 518.315 201.319 513.035C207.395 511.982 215.716 511.289 219.456 505.717C221.317 502.944 221.428 499.521 220.611 496.37C219.509 492.123 216.841 488.352 213.005 486.166C209.128 483.957 203.554 483.939 199.367 485.33C197.887 485.821 196.796 486.787 196.154 488.206C194.73 491.355 197.694 495.202 196.489 497.782C194.752 498.377 193.764 497.792 192.144 497.088C190.319 496.297 188.388 495.931 186.523 496.867C185.316 497.473 184.481 498.543 184.127 499.84C183.627 501.666 184.237 503.489 185.343 504.947C187.691 508.043 191.064 508.306 194.628 508.724C193.16 514.208 190.027 527.168 186.05 531.021C184.419 530.874 184.409 531.127 183.072 532.125C181.761 531.381 180.75 531.501 179.307 531.574C178.099 530.46 177.075 529.903 175.564 529.272Z"/>
	<path fill="#141313" d="M213.691 775.538C220.62 775.756 227.774 775.609 234.663 776.264L232.888 776.878L232.694 777.674C233.884 778.769 234.783 779.041 236.296 779.419C226.218 779.089 215.588 779.403 205.606 778.14C208.845 777.507 213.585 779.063 216.299 776.887C215.578 775.843 214.865 775.891 213.691 775.538Z"/>
	<path fill="#141313" d="M436.272 570.252C441.11 572.39 459.636 591.843 463.968 596.797C460.36 600.487 456.249 603.811 452.405 607.268L431.016 626.662L430.064 627.175C427.59 626.363 423.856 620.612 422.192 618.559C430.677 612.16 439.009 603.292 446.855 596.021C440.846 589.999 434.468 584.369 428.619 578.181C430.847 575.236 433.532 572.707 436.272 570.252Z"/>
	<path fill="#141313" d="M390.035 572.222C393.089 572.873 396.816 578.061 398.838 580.334C391.119 586.603 383.605 593.16 376.047 599.623C382.283 607.015 389.339 613.793 396.109 620.696C393.183 623.176 390.351 625.765 387.427 628.25C378.312 620.98 366.8 607.906 358.467 599.181C369.109 590.417 380.142 581.843 390.035 572.222Z"/>
	<path fill="#141313" d="M940.464 372.807C940.349 355.834 933.913 340.336 923.415 327.162C899.345 296.957 860.564 283.26 823.337 278.98C765.482 272.329 703.019 288.566 654.053 319.624C645.008 325.361 637.006 331.936 628.629 338.548C627.053 339.792 624.483 342.421 622.411 342.174L622.057 341.183C622.278 340.257 622.441 339.56 623.041 338.793C625.571 335.562 632.961 330.745 636.426 328.067C670.406 301.804 713.3 284.524 755.641 277.878C805.604 270.036 862.626 273.954 904.64 304.836C924.966 319.777 939.47 339.302 943.252 364.571C943.747 370.429 943.834 376.409 943.162 382.258Q942.782 384.928 942.254 387.573Q941.727 390.218 941.053 392.83Q940.379 395.442 939.561 398.012Q938.743 400.582 937.783 403.103Q936.824 405.623 935.726 408.087Q934.628 410.55 933.394 412.949Q932.161 415.347 930.796 417.674Q929.431 420 927.939 422.247C926.748 424.038 925.171 426.701 923.383 427.91C922.729 428.352 922.882 428.201 922.044 428.012C921.629 426.812 921.47 425.912 921.998 424.682C923.22 421.839 926.072 419.007 927.718 416.253C933.903 405.907 937.593 395.977 939.778 384.115C940.23 380.359 940.325 376.584 940.464 372.807Z"/>
	<path fill="#141313" d="M256.269 242.205C295.587 241.337 336.507 254.965 369.818 275.48C374.583 278.415 379.972 281.327 384.284 284.901C385.324 285.763 386.094 286.21 386.253 287.614L385.355 288.645C384.019 288.684 383.634 288.581 382.456 287.931C379.029 286.039 375.823 283.379 372.55 281.2C365.614 276.585 358.253 272.136 350.753 268.499C330.854 258.85 308.851 251.268 287.035 247.52C265.107 243.754 236.804 243.305 217.957 256.853C207.287 264.524 202.13 274.854 200.008 287.561Q199.953 289.311 199.974 291.062C200.224 322.586 224.497 354.042 247.623 373.563C251.025 376.435 254.485 379.273 258.103 381.87C261.073 384.002 265.588 386.266 267.987 388.925C268.748 389.768 268.597 390.005 268.48 391.056L267.761 391.415C262.211 390.39 250.038 380.079 245.798 376.351C223.134 356.425 198.963 326.759 197.112 295.474C196.342 282.452 199.809 270.603 208.609 260.816C220.609 247.469 239.036 243.185 256.269 242.205Z"/>
	<path fill="#141313" d="M80.6131 423.332Q80.7318 423.283 80.8546 423.246Q80.9773 423.208 81.1031 423.182Q81.2289 423.157 81.3565 423.143Q81.4842 423.129 81.6126 423.127Q81.7409 423.126 81.8689 423.136Q81.9968 423.147 82.1232 423.169Q82.2496 423.192 82.3733 423.226Q82.497 423.261 82.6169 423.307Q82.7367 423.353 82.8517 423.41Q82.9667 423.467 83.0758 423.535Q83.1849 423.602 83.2871 423.68Q83.3893 423.758 83.4837 423.845Q83.5781 423.932 83.6638 424.027Q83.7496 424.123 83.8259 424.226Q83.9022 424.329 83.9684 424.439Q84.0347 424.549 84.0902 424.665Q84.1457 424.781 84.19 424.901Q84.2344 425.022 84.2671 425.146Q84.2999 425.27 84.3207 425.397Q84.3416 425.523 84.3504 425.651Q84.3592 425.779 84.3559 425.908Q84.3525 426.036 84.3371 426.164Q84.3216 426.291 84.2942 426.416Q84.2667 426.542 84.2276 426.664Q84.1884 426.786 84.1378 426.904Q84.0873 427.022 84.0258 427.135Q83.9644 427.248 83.8925 427.354Q83.8207 427.46 83.7391 427.56Q83.6575 427.659 83.5669 427.75Q83.4763 427.841 83.3776 427.923Q83.2788 428.004 83.1727 428.077Q83.0666 428.149 82.9542 428.211Q82.793 428.3 82.6213 428.366Q82.4496 428.432 82.2706 428.474Q82.0915 428.517 81.9083 428.534Q81.7252 428.552 81.5414 428.545Q81.3575 428.538 81.1763 428.506Q80.9951 428.474 80.8199 428.418Q80.6446 428.362 80.4786 428.282Q80.3126 428.203 80.1588 428.102Q80.005 428.001 79.8663 427.88Q79.7276 427.759 79.6065 427.621Q79.4854 427.482 79.3841 427.329Q79.2828 427.175 79.2032 427.009Q79.1236 426.843 79.0672 426.668Q79.0108 426.493 78.9785 426.312Q78.9462 426.131 78.9388 425.947Q78.9313 425.763 78.9487 425.58Q78.9662 425.397 79.0082 425.218Q79.0503 425.039 79.1162 424.867Q79.182 424.695 79.2705 424.534Q79.359 424.372 79.4685 424.225Q79.5779 424.077 79.7064 423.945Q79.8348 423.813 79.9799 423.7Q80.125 423.587 80.284 423.495Q80.443 423.402 80.6131 423.332Z"/>
	<path fill="#141313" d="M787.581 375.249Q787.701 375.209 787.824 375.181Q787.947 375.153 788.073 375.138Q788.198 375.122 788.325 375.118Q788.451 375.115 788.577 375.124Q788.703 375.133 788.828 375.154Q788.952 375.175 789.074 375.208Q789.196 375.242 789.314 375.287Q789.432 375.332 789.545 375.388Q789.658 375.444 789.766 375.511Q789.873 375.578 789.973 375.656Q790.073 375.733 790.165 375.819Q790.257 375.906 790.34 376.001Q790.423 376.096 790.497 376.199Q790.57 376.302 790.633 376.411Q790.696 376.521 790.748 376.636Q790.8 376.751 790.841 376.871Q790.882 376.991 790.91 377.114Q790.939 377.237 790.956 377.362Q790.972 377.487 790.976 377.613Q790.981 377.74 790.973 377.866Q790.965 377.992 790.944 378.116Q790.924 378.241 790.891 378.363Q790.859 378.485 790.815 378.604Q790.771 378.722 790.715 378.835Q790.66 378.949 790.594 379.056Q790.527 379.164 790.451 379.265Q790.374 379.365 790.288 379.458Q790.202 379.55 790.108 379.634Q790.013 379.718 789.911 379.792Q789.809 379.866 789.7 379.93Q789.591 379.994 789.476 380.047Q789.361 380.1 789.242 380.141Q789.122 380.183 788.998 380.213Q788.874 380.242 788.747 380.26Q788.621 380.277 788.494 380.282Q788.367 380.287 788.239 380.279Q788.112 380.271 787.986 380.251Q787.86 380.231 787.737 380.199Q787.614 380.166 787.495 380.122Q787.375 380.077 787.26 380.021Q787.146 379.965 787.038 379.898Q786.929 379.831 786.828 379.754Q786.727 379.677 786.633 379.59Q786.54 379.503 786.456 379.407Q786.372 379.311 786.297 379.208Q786.223 379.104 786.159 378.994Q786.095 378.884 786.043 378.768Q785.99 378.652 785.949 378.531Q785.908 378.41 785.879 378.286Q785.85 378.162 785.834 378.036Q785.817 377.909 785.813 377.782Q785.809 377.655 785.818 377.527Q785.826 377.4 785.847 377.275Q785.868 377.149 785.901 377.026Q785.935 376.903 785.98 376.784Q786.025 376.664 786.082 376.55Q786.139 376.436 786.206 376.328Q786.274 376.22 786.352 376.12Q786.43 376.019 786.518 375.926Q786.605 375.833 786.701 375.75Q786.798 375.666 786.902 375.593Q787.006 375.519 787.116 375.456Q787.227 375.393 787.344 375.341Q787.46 375.289 787.581 375.249Z"/>
	<path fill="#141313" d="M763.252 360.338Q763.368 360.289 763.488 360.251Q763.608 360.214 763.731 360.188Q763.855 360.163 763.98 360.15Q764.105 360.137 764.231 360.136Q764.357 360.135 764.482 360.146Q764.608 360.158 764.731 360.182Q764.855 360.205 764.975 360.241Q765.096 360.277 765.213 360.324Q765.329 360.372 765.441 360.431Q765.552 360.489 765.657 360.559Q765.762 360.628 765.86 360.707Q765.957 360.787 766.047 360.875Q766.136 360.964 766.217 361.061Q766.297 361.158 766.367 361.262Q766.438 361.366 766.498 361.477Q766.557 361.588 766.606 361.704Q766.655 361.82 766.692 361.94Q766.729 362.061 766.754 362.184Q766.779 362.307 766.791 362.433Q766.804 362.558 766.804 362.684Q766.805 362.81 766.793 362.935Q766.781 363.06 766.756 363.184Q766.732 363.307 766.696 363.428Q766.659 363.548 766.611 363.665Q766.563 363.781 766.504 363.892Q766.445 364.003 766.375 364.108Q766.306 364.213 766.226 364.31Q766.146 364.407 766.057 364.496Q765.968 364.586 765.871 364.665Q765.774 364.745 765.669 364.815Q765.564 364.885 765.453 364.945Q765.342 365.004 765.226 365.052Q765.11 365.1 764.991 365.136Q764.871 365.173 764.748 365.197Q764.625 365.221 764.501 365.234Q764.376 365.246 764.251 365.246Q764.126 365.246 764.001 365.234Q763.876 365.222 763.754 365.198Q763.631 365.173 763.511 365.137Q763.391 365.101 763.275 365.053Q763.16 365.006 763.049 364.947Q762.939 364.888 762.834 364.819Q762.73 364.749 762.633 364.67Q762.536 364.591 762.447 364.503Q762.359 364.415 762.279 364.318Q762.199 364.222 762.129 364.118Q762.059 364.014 762 363.904Q761.94 363.793 761.892 363.678Q761.844 363.563 761.807 363.443Q761.77 363.323 761.745 363.201Q761.72 363.078 761.707 362.953Q761.694 362.829 761.694 362.704Q761.693 362.578 761.705 362.454Q761.716 362.329 761.74 362.206Q761.764 362.083 761.8 361.963Q761.835 361.843 761.882 361.727Q761.93 361.611 761.988 361.5Q762.046 361.39 762.115 361.285Q762.184 361.181 762.263 361.083Q762.342 360.986 762.43 360.897Q762.517 360.808 762.614 360.727Q762.71 360.647 762.813 360.577Q762.917 360.507 763.027 360.447Q763.137 360.387 763.252 360.338Z"/>
	<path fill="#141313" d="M108.17 402.165Q108.283 402.152 108.397 402.15Q108.511 402.148 108.624 402.156Q108.738 402.164 108.85 402.183Q108.963 402.201 109.073 402.23Q109.183 402.258 109.29 402.297Q109.397 402.335 109.5 402.383Q109.604 402.432 109.702 402.489Q109.8 402.546 109.893 402.612Q109.986 402.678 110.072 402.753Q110.158 402.827 110.237 402.909Q110.317 402.991 110.388 403.079Q110.459 403.168 110.522 403.263Q110.585 403.358 110.639 403.458Q110.693 403.558 110.738 403.663Q110.783 403.767 110.818 403.876Q110.853 403.984 110.878 404.095Q110.903 404.206 110.918 404.319Q110.933 404.432 110.937 404.546Q110.941 404.659 110.936 404.773Q110.93 404.887 110.913 404.999Q110.897 405.112 110.871 405.223Q110.844 405.333 110.808 405.441Q110.771 405.549 110.725 405.653Q110.679 405.757 110.623 405.856Q110.568 405.956 110.504 406.05Q110.439 406.144 110.367 406.231Q110.294 406.319 110.214 406.4Q110.134 406.48 110.047 406.554Q109.959 406.627 109.866 406.691Q109.772 406.756 109.673 406.812Q109.574 406.868 109.47 406.915Q109.367 406.962 109.259 406.999Q109.094 407.056 108.922 407.089Q108.75 407.123 108.576 407.132Q108.401 407.141 108.227 407.125Q108.052 407.11 107.882 407.07Q107.712 407.03 107.549 406.967Q107.385 406.904 107.233 406.819Q107.08 406.734 106.941 406.628Q106.801 406.522 106.678 406.398Q106.555 406.274 106.45 406.134Q106.345 405.994 106.261 405.84Q106.177 405.687 106.115 405.523Q106.053 405.36 106.015 405.189Q105.977 405.019 105.962 404.844Q105.948 404.67 105.958 404.495Q105.969 404.321 106.003 404.149Q106.038 403.978 106.096 403.813Q106.154 403.648 106.235 403.493Q106.315 403.338 106.417 403.195Q106.518 403.053 106.639 402.926Q106.759 402.799 106.896 402.691Q107.033 402.582 107.184 402.493Q107.334 402.405 107.496 402.338Q107.658 402.271 107.827 402.228Q107.996 402.184 108.17 402.165Z"/>
	<path fill="#141313" d="M326.799 433.778Q326.954 433.72 327.116 433.683Q327.277 433.647 327.442 433.632Q327.607 433.618 327.773 433.626Q327.938 433.634 328.101 433.664Q328.264 433.694 328.421 433.746Q328.578 433.797 328.727 433.87Q328.876 433.942 329.014 434.034Q329.152 434.126 329.276 434.236Q329.4 434.346 329.508 434.471Q329.617 434.596 329.707 434.735Q329.797 434.874 329.868 435.024Q329.939 435.174 329.989 435.332Q330.039 435.49 330.067 435.653Q330.095 435.816 330.101 435.982Q330.107 436.147 330.091 436.312Q330.074 436.477 330.036 436.638Q329.997 436.799 329.938 436.954Q329.878 437.108 329.798 437.253Q329.717 437.398 329.618 437.531Q329.519 437.664 329.403 437.782Q329.287 437.9 329.157 438.002Q329.026 438.104 328.882 438.187Q328.739 438.27 328.586 438.332Q328.432 438.395 328.272 438.437Q328.16 438.466 328.045 438.485Q327.93 438.503 327.814 438.511Q327.698 438.518 327.582 438.515Q327.466 438.511 327.351 438.496Q327.235 438.482 327.122 438.457Q327.009 438.431 326.898 438.395Q326.788 438.359 326.681 438.313Q326.575 438.266 326.473 438.21Q326.371 438.154 326.275 438.088Q326.179 438.023 326.09 437.948Q326.001 437.874 325.919 437.791Q325.837 437.709 325.764 437.619Q325.69 437.529 325.625 437.433Q325.56 437.336 325.505 437.234Q325.45 437.132 325.404 437.025Q325.359 436.918 325.324 436.807Q325.289 436.696 325.265 436.583Q325.24 436.469 325.227 436.354Q325.213 436.238 325.211 436.122Q325.208 436.006 325.217 435.89Q325.225 435.774 325.245 435.659Q325.264 435.545 325.294 435.433Q325.325 435.32 325.365 435.211Q325.406 435.103 325.457 434.998Q325.508 434.894 325.569 434.794Q325.629 434.695 325.699 434.602Q325.768 434.509 325.847 434.423Q325.925 434.337 326.011 434.259Q326.097 434.181 326.19 434.111Q326.283 434.042 326.382 433.981Q326.481 433.921 326.586 433.87Q326.69 433.819 326.799 433.778Z"/>
	<path fill="#141313" d="M633.305 463.852Q633.443 463.769 633.592 463.704Q633.74 463.64 633.895 463.596Q634.051 463.551 634.211 463.528Q634.37 463.505 634.532 463.502Q634.693 463.5 634.854 463.519Q635.014 463.538 635.171 463.579Q635.327 463.619 635.477 463.679Q635.627 463.739 635.768 463.819Q635.909 463.899 636.038 463.996Q636.167 464.094 636.282 464.207Q636.397 464.321 636.496 464.448Q636.595 464.576 636.676 464.716Q636.757 464.855 636.82 465.005Q636.882 465.154 636.924 465.31Q636.966 465.466 636.987 465.626Q637.008 465.786 637.008 465.948Q637.008 466.11 636.986 466.27Q636.965 466.43 636.923 466.586Q636.88 466.742 636.818 466.891Q636.755 467.04 636.674 467.179Q636.592 467.318 636.493 467.446Q636.394 467.573 636.279 467.687Q636.164 467.8 636.035 467.897Q635.906 467.995 635.765 468.074Q635.661 468.133 635.553 468.181Q635.444 468.229 635.331 468.266Q635.218 468.303 635.102 468.33Q634.986 468.356 634.868 468.37Q634.75 468.385 634.631 468.389Q634.512 468.392 634.393 468.383Q634.274 468.375 634.157 468.355Q634.04 468.335 633.925 468.304Q633.81 468.273 633.699 468.231Q633.588 468.189 633.481 468.136Q633.374 468.083 633.273 468.02Q633.172 467.958 633.078 467.885Q632.983 467.813 632.896 467.732Q632.809 467.65 632.731 467.561Q632.652 467.472 632.583 467.375Q632.513 467.279 632.453 467.176Q632.393 467.073 632.344 466.965Q632.294 466.857 632.255 466.744Q632.216 466.632 632.188 466.516Q632.161 466.401 632.144 466.283Q632.128 466.165 632.123 466.046Q632.118 465.927 632.125 465.808Q632.131 465.69 632.15 465.572Q632.168 465.455 632.197 465.339Q632.227 465.224 632.268 465.112Q632.308 465 632.359 464.893Q632.411 464.786 632.472 464.684Q632.534 464.582 632.605 464.486Q632.676 464.391 632.756 464.303Q632.836 464.215 632.924 464.135Q633.012 464.055 633.107 463.984Q633.203 463.913 633.305 463.852Z"/>
	<path fill="#141313" d="M622.329 491.81Q622.474 491.735 622.628 491.681Q622.782 491.627 622.942 491.594Q623.102 491.561 623.265 491.551Q623.428 491.54 623.59 491.552Q623.753 491.564 623.913 491.598Q624.072 491.632 624.226 491.688Q624.379 491.743 624.524 491.819Q624.668 491.895 624.801 491.99Q624.934 492.085 625.052 492.197Q625.171 492.31 625.273 492.437Q625.375 492.565 625.458 492.705Q625.542 492.845 625.606 492.995Q625.669 493.146 625.712 493.303Q625.755 493.461 625.775 493.623Q625.796 493.785 625.794 493.948Q625.792 494.112 625.768 494.273Q625.744 494.435 625.698 494.591Q625.652 494.748 625.585 494.897Q625.519 495.046 625.432 495.184Q625.345 495.322 625.241 495.448Q625.136 495.573 625.015 495.683Q624.894 495.792 624.76 495.885Q624.625 495.977 624.479 496.05Q624.333 496.123 624.178 496.175Q624.073 496.211 623.964 496.236Q623.856 496.262 623.746 496.277Q623.636 496.293 623.525 496.298Q623.414 496.303 623.303 496.297Q623.192 496.292 623.081 496.276Q622.971 496.261 622.863 496.235Q622.755 496.209 622.65 496.173Q622.544 496.137 622.443 496.091Q622.342 496.046 622.245 495.991Q622.148 495.936 622.057 495.873Q621.966 495.809 621.881 495.737Q621.796 495.665 621.718 495.586Q621.64 495.506 621.57 495.42Q621.5 495.333 621.439 495.241Q621.377 495.148 621.324 495.05Q621.271 494.952 621.228 494.85Q621.185 494.748 621.151 494.642Q621.118 494.536 621.094 494.427Q621.07 494.318 621.057 494.208Q621.044 494.097 621.041 493.986Q621.038 493.875 621.045 493.764Q621.053 493.653 621.071 493.544Q621.088 493.434 621.116 493.326Q621.144 493.219 621.182 493.114Q621.22 493.009 621.267 492.909Q621.315 492.808 621.371 492.713Q621.428 492.617 621.493 492.527Q621.559 492.437 621.632 492.353Q621.706 492.27 621.786 492.194Q621.867 492.117 621.955 492.049Q622.043 491.981 622.136 491.921Q622.23 491.861 622.329 491.81Z"/>
</svg>
